<svg width="176" height="88" viewBox="0 0 176 88" fill="none" xmlns="http://www.w3.org/2000/svg">
<path d="M75.8049 0H74.3187C70.6489 0.00469929 67.675 2.97622 67.6703 6.64323V37.8324C67.6703 43.6815 65.7014 46.6467 61.8214 46.6467C61.1223 46.6483 60.5563 47.2169 60.5579 47.9155C60.5595 48.611 61.1238 49.1765 61.8214 49.1781C64.952 49.1781 70.2037 47.7041 70.2037 37.8324V6.6448C70.2068 4.37504 72.0472 2.53448 74.3203 2.53135H75.8064C78.0795 2.53448 79.9199 4.37504 79.9231 6.6448V37.6304C79.9231 44.5853 78.0168 50.0146 74.2576 53.7709C70.9937 57.0322 66.6467 58.7552 61.6866 58.7552C53.9487 58.7552 47.305 54.1405 44.3484 46.7125C44.1054 46.0578 43.3765 45.7225 42.7212 45.9653C42.0659 46.2081 41.7304 46.9365 41.9734 47.5913C41.9797 47.6101 41.9875 47.6289 41.9954 47.6461C45.3439 56.0594 52.889 61.285 61.685 61.285C67.3333 61.285 72.2996 59.3051 76.0478 55.5613C80.2993 51.3131 82.4548 45.2792 82.4548 37.6304V6.6448C82.4501 2.97622 79.4747 0.00313286 75.8049 0Z" fill="url(#paint0_linear_341_27522)"/>
<path d="M132.855 29.3738C132.167 29.3738 131.609 29.9315 131.609 30.6191V47.5663C131.609 48.7067 131.126 49.7954 130.281 50.5629C124.611 55.8026 117.188 58.7366 109.465 58.7945C93.8203 58.7945 82.4643 47.0306 82.4643 30.8196V30.6865C82.4063 23.5577 84.9772 16.656 89.6864 11.3003C94.7296 5.66589 101.966 2.48604 109.53 2.57846C116.915 2.57846 122.347 4.58192 128.277 9.49111C129.994 10.9166 130.237 13.4605 128.82 15.1851L127.89 16.3145C126.47 18.0313 123.93 18.2819 122.199 16.8784C118.611 13.9554 115.071 12.0084 109.464 12.0084C98.5531 12.0084 92.0316 21.4727 92.0316 30.6223V30.7554C91.9611 35.3137 93.4472 39.7592 96.247 43.3589C99.4278 47.2906 104.021 49.3693 109.53 49.3693C113.828 49.3348 118.012 47.9705 121.502 45.4611C121.839 45.2277 122.04 44.8454 122.04 44.4366V30.6896C122.04 30.002 121.481 29.4443 120.793 29.4443H108.931C108.243 29.4427 107.683 29.9988 107.68 30.6865C107.678 31.3741 108.235 31.9334 108.923 31.9365H119.545V43.7724C116.586 45.7696 113.101 46.8505 109.53 46.8787C99.2209 46.8787 94.5258 38.5218 94.5258 30.757V30.6238C94.5258 22.6993 100.113 14.5021 109.464 14.5021C114.374 14.5021 117.274 16.0827 120.626 18.8129C123.421 21.0811 127.523 20.6739 129.817 17.9013L130.746 16.7719C133.035 13.9868 132.643 9.87646 129.87 7.5738C123.45 2.25264 117.558 0.0815667 109.533 0.0815667C101.256 -0.015552 93.3422 3.46976 87.8272 9.63836C82.7088 15.4514 79.9137 22.9421 79.9717 30.6834V30.8165C79.9717 48.4702 92.3765 61.2851 109.467 61.2851C117.81 61.2303 125.833 58.063 131.963 52.4066C133.327 51.166 134.104 49.4085 134.106 47.5648V30.6191C134.106 29.9315 133.548 29.3738 132.859 29.3738H132.856H132.855Z" fill="url(#paint1_linear_341_27522)"/>
<path d="M4.66219 82.0678C4.65278 84.3391 2.80139 86.1797 0.531433 86.1797H0V87.5895H0.533001C3.59462 87.5832 6.07934 85.0895 6.07464 82.0318V73.7563H4.66376V82.0663L4.66219 82.0678Z" fill="white"/>
<path d="M20.5268 73.3679H20.519C18.5876 73.3679 16.6986 74.1511 15.3363 75.5171C13.9552 76.9002 13.1949 78.7392 13.1981 80.6926C13.1996 82.6459 13.9646 84.4833 15.3489 85.8633C16.7316 87.2418 18.5673 88 20.519 88H20.5284C22.4833 87.9984 24.3221 87.234 25.7032 85.8508C27.0843 84.4677 27.8446 82.6302 27.8415 80.6753C27.8399 78.722 27.0765 76.8877 25.6938 75.5077C24.3441 74.1182 22.4582 73.3397 20.5284 73.3679H20.5268ZM20.5096 74.7777H20.5331C22.0882 74.7589 23.5994 75.3855 24.6874 76.5071C25.791 77.6098 26.4228 79.1371 26.4181 80.6973C26.4102 83.9476 23.7609 86.5855 20.5096 86.5855H20.4939C17.2363 86.5776 14.5933 83.921 14.6011 80.6659C14.609 77.4156 17.2583 74.7777 20.5096 74.7777Z" fill="white"/>
<path d="M45.9776 76.507L46.3397 76.8688L47.3414 75.8663L46.9793 75.506C44.1309 72.6614 39.4954 72.6614 36.6469 75.506C35.2658 76.8845 34.504 78.7188 34.504 80.6706C34.504 82.6223 35.2627 84.4566 36.6422 85.8367C38.0672 87.2621 39.9406 87.9748 41.8139 87.9748C43.6873 87.9748 45.5559 87.2637 46.9809 85.8413L47.1314 85.691V79.9688H41.0583V81.3786H45.7205V85.0848C43.4129 87.1274 39.8324 87.035 37.6377 84.842C35.338 82.544 35.3395 78.8049 37.6377 76.5086C39.9359 74.2122 43.6794 74.2122 45.9776 76.5086V76.507Z" fill="white"/>
<path d="M61.629 73.3679H61.6212C59.6898 73.3679 57.8008 74.1511 56.4385 75.5171C53.587 78.3727 53.5932 83.014 56.4511 85.8633C57.8337 87.2418 59.6694 88 61.6212 88H61.6306C63.5854 87.9984 65.4243 87.234 66.8054 85.8508C68.1865 84.4677 68.9452 82.6302 68.9437 80.6753C68.9421 78.722 68.1787 76.8877 66.796 75.5077C65.4462 74.1182 63.5619 73.3397 61.6306 73.3679H61.629ZM61.6118 74.7777H61.6353C63.1904 74.7636 64.7016 75.3855 65.7896 76.5071C66.8932 77.6098 67.5249 79.1371 67.5202 80.6973C67.5124 83.9476 64.8631 86.5855 61.6118 86.5855H61.5961C58.3385 86.5776 55.6955 83.9225 55.7033 80.6675C55.708 79.0901 56.3257 77.6098 57.445 76.4977C58.5596 75.3886 60.0394 74.7793 61.6118 74.7793V74.7777Z" fill="white"/>
<path d="M87.0783 76.5071L87.4404 76.8689L88.4437 75.8664L88.0816 75.5046C85.2331 72.6599 80.5976 72.6599 77.7492 75.5046C76.3681 76.883 75.6062 78.7173 75.6062 80.6691C75.6062 82.6209 76.3649 84.4552 77.7445 85.8352C79.1695 87.2606 81.0428 87.9734 82.9161 87.9734C84.7895 87.9734 86.6581 87.2622 88.0831 85.8399L88.2336 85.6895V79.9673H82.1605V81.3771H86.8227V85.0833C84.5167 87.1259 80.9346 87.0335 78.7399 84.8405C76.4402 82.5425 76.4418 78.8035 78.7399 76.5071C81.0397 74.2091 84.7816 74.2107 87.0798 76.5071H87.0783Z" fill="white"/>
<path d="M97.6019 73.7563H96.191V87.5879H104.595V86.1781H97.6019V73.7563Z" fill="white"/>
<path d="M116.329 73.3679H116.321C114.391 73.3679 112.502 74.1511 111.139 75.5155C108.287 78.3711 108.293 83.0124 111.15 85.8602C112.576 87.2825 114.448 87.9936 116.32 87.9936C118.191 87.9936 120.074 87.2778 121.502 85.8492C124.352 82.9952 124.348 78.357 121.493 75.5076C120.143 74.1182 118.259 73.346 116.327 73.3679H116.329ZM116.312 74.7777H116.327V74.3892H116.331L116.335 74.7777C117.884 74.7589 119.402 75.3854 120.49 76.507C121.593 77.6098 122.225 79.137 122.22 80.6972C122.212 83.9476 119.563 86.5854 116.312 86.5854H116.296C113.039 86.5776 110.395 83.9225 110.403 80.6675C110.411 77.4171 113.06 74.7792 116.312 74.7792V74.7777Z" fill="white"/>
<path d="M139.507 80.5326C139.609 80.448 139.706 80.3603 139.798 80.2648C140.512 79.5489 140.907 78.5981 140.91 77.5877C140.914 76.568 140.521 75.6093 139.801 74.8856C139.082 74.1619 138.126 73.7609 137.104 73.7578H131.154V87.5894H137.494C139.173 87.5894 140.678 86.4631 141.153 84.8528C141.648 83.1721 140.929 81.4161 139.507 80.5326ZM138.767 79.2153C138.326 79.6821 137.731 79.9499 137.104 79.9687H132.565V75.1676H137.088C138.358 75.2052 139.381 76.2281 139.419 77.4969C139.438 78.1376 139.206 78.7485 138.765 79.2153H138.767ZM132.565 81.3785H137.484C138.743 81.4239 139.761 82.4421 139.801 83.7015C139.822 84.3422 139.591 84.9531 139.152 85.4215C138.715 85.8882 138.122 86.1561 137.484 86.1796H132.565V81.3785Z" fill="white"/>
<path d="M154.056 73.7563H153.344L146.882 87.5895H148.445L149.425 85.4936H158.409L159.389 87.5895H160.954L154.492 73.7563H154.054H154.056ZM150.091 84.0823L153.92 75.8804L157.748 84.0823H150.091Z" fill="white"/>
<path d="M169.007 86.1781V73.7563H167.596V87.5879H176V86.1781H169.007Z" fill="white"/>
<defs>
<linearGradient id="paint0_linear_341_27522" x1="46.6842" y1="54.5207" x2="99.0389" y2="31.5866" gradientUnits="userSpaceOnUse">
<stop stop-color="#FAAC4B"/>
<stop offset="0.05" stop-color="#F9A449"/>
<stop offset="0.12" stop-color="#F69044"/>
<stop offset="0.21" stop-color="#F36E3D"/>
<stop offset="0.31" stop-color="#EE4033"/>
<stop offset="0.33" stop-color="#ED3431"/>
<stop offset="0.66" stop-color="#C5168C"/>
<stop offset="1" stop-color="#00BCF1"/>
</linearGradient>
<linearGradient id="paint1_linear_341_27522" x1="107.102" y1="60.9089" x2="107.102" y2="-0.252413" gradientUnits="userSpaceOnUse">
<stop stop-color="#FAAC4B"/>
<stop offset="0.03" stop-color="#F9A449"/>
<stop offset="0.08" stop-color="#F69044"/>
<stop offset="0.13" stop-color="#F36E3D"/>
<stop offset="0.2" stop-color="#EE4033"/>
<stop offset="0.21" stop-color="#ED3431"/>
<stop offset="0.28" stop-color="#DF2950"/>
<stop offset="0.34" stop-color="#D3216A"/>
<stop offset="0.41" stop-color="#CB1A7D"/>
<stop offset="0.48" stop-color="#C61788"/>
<stop offset="0.56" stop-color="#C5168C"/>
<stop offset="0.82" stop-color="#00BCF1"/>
</linearGradient>
</defs>
</svg>
