<svg width="350" height="34" viewBox="0 0 350 34" fill="none" xmlns="http://www.w3.org/2000/svg">
<path d="M68.3736 18.4751V5.62646H69.0177V18.4751C69.0177 20.7855 68.2032 22.7593 66.5785 24.3841C64.9537 26.0089 62.9799 26.8233 60.6694 26.8233V26.1793C62.8095 26.1793 64.6337 25.4271 66.1421 23.9187C67.6339 22.4103 68.3778 20.5943 68.3778 18.4709L68.3736 18.4751Z" fill="white" stroke="white" stroke-width="0.6" stroke-miterlimit="10"/>
<path d="M101.7 8.27328C103.894 10.4674 104.987 13.1144 104.987 16.2143C104.987 19.3143 103.89 21.9862 101.7 24.1803C99.5061 26.3744 96.8591 27.4672 93.7591 27.4672C90.6592 27.4672 87.9872 26.3702 85.7932 24.1803C83.5991 21.9862 82.5062 19.3309 82.5062 16.2143C82.5062 13.0977 83.6033 10.4674 85.7932 8.27328C87.9872 6.07921 90.6426 4.98633 93.7591 4.98633C96.8757 4.98633 99.5061 6.08337 101.7 8.27328ZM93.7591 5.62627C90.8296 5.62627 88.328 6.66096 86.2544 8.73453C84.1809 10.8081 83.1462 13.3014 83.1462 16.2102C83.1462 19.119 84.1809 21.6413 86.2544 23.7149C88.328 25.7884 90.8296 26.8231 93.7591 26.8231C96.6887 26.8231 99.1654 25.7884 101.235 23.7149C103.308 21.6413 104.343 19.1398 104.343 16.2102C104.343 13.2806 103.304 10.8039 101.235 8.73453C99.1612 6.66096 96.668 5.62627 93.7591 5.62627Z" fill="white" stroke="white" stroke-width="0.6" stroke-miterlimit="10"/>
<path d="M136.905 24.1803C134.711 26.3744 132.064 27.4672 128.964 27.4672C125.864 27.4672 123.192 26.3702 120.998 24.1803C118.804 21.9862 117.711 19.3309 117.711 16.2143C117.711 13.0977 118.808 10.4674 120.998 8.27328C123.192 6.07921 125.847 4.98633 128.964 4.98633C132.081 4.98633 134.711 6.08337 136.905 8.27328L136.444 8.73453C134.37 6.66096 131.877 5.62627 128.968 5.62627C126.059 5.62627 123.537 6.66096 121.463 8.73453C119.39 10.8081 118.355 13.3014 118.355 16.2102C118.355 19.119 119.39 21.6413 121.463 23.7149C123.537 25.7884 126.039 26.8231 128.968 26.8231C131.898 26.8231 134.229 25.8466 136.265 23.8936V16.5426H128.557V15.8985H136.909V24.172L136.905 24.1803Z" fill="white" stroke="white" stroke-width="0.6" stroke-miterlimit="10"/>
<path d="M169.666 8.27328C171.861 10.4674 172.953 13.1144 172.953 16.2143C172.953 19.3143 171.856 21.9862 169.666 24.1803C167.472 26.3744 164.825 27.4672 161.725 27.4672C158.626 27.4672 155.954 26.3702 153.759 24.1803C151.565 21.9862 150.473 19.3309 150.473 16.2143C150.473 13.0977 151.57 10.4674 153.759 8.27328C155.954 6.07921 158.609 4.98633 161.725 4.98633C164.842 4.98633 167.472 6.08337 169.666 8.27328ZM161.725 5.62627C158.796 5.62627 156.294 6.66096 154.221 8.73453C152.147 10.8081 151.112 13.3014 151.112 16.2102C151.112 19.119 152.147 21.6413 154.221 23.7149C156.294 25.7884 158.796 26.8231 161.725 26.8231C164.655 26.8231 167.132 25.7884 169.201 23.7149C171.275 21.6413 172.309 19.1398 172.309 16.2102C172.309 13.2806 171.27 10.8039 169.201 8.73453C167.128 6.66096 164.634 5.62627 161.725 5.62627Z" fill="white" stroke="white" stroke-width="0.6" stroke-miterlimit="10"/>
<path d="M204.867 24.1803C202.673 26.3744 200.026 27.4672 196.926 27.4672C193.826 27.4672 191.154 26.3702 188.96 24.1803C186.766 21.9862 185.673 19.3309 185.673 16.2143C185.673 13.0977 186.77 10.4674 188.96 8.27328C191.154 6.07921 193.81 4.98633 196.926 4.98633C200.043 4.98633 202.673 6.08337 204.867 8.27328L204.406 8.73453C202.332 6.66096 199.839 5.62627 196.926 5.62627C194.013 5.62627 191.495 6.66096 189.426 8.73453C187.352 10.8081 186.317 13.3014 186.317 16.2102C186.317 19.119 187.352 21.6413 189.426 23.7149C191.499 25.7884 194.001 26.8231 196.926 26.8231C199.852 26.8231 202.187 25.8466 204.223 23.8936V16.5426H196.515V15.8985H204.867V24.172V24.1803Z" fill="white"/>
<path d="M219.719 5.62646H220.363V26.1834H231.927V26.8275H219.723V5.63061L219.719 5.62646Z" fill="white"/>
<path d="M260.109 8.27328C262.304 10.4674 263.396 13.1144 263.396 16.2143C263.396 19.3143 262.299 21.9862 260.109 24.1803C257.915 26.3744 255.268 27.4672 252.168 27.4672C249.068 27.4672 246.397 26.3702 244.202 24.1803C242.008 21.9862 240.911 19.3309 240.911 16.2143C240.911 13.0977 242.008 10.4674 244.202 8.27328C246.397 6.07921 249.052 4.98633 252.168 4.98633C255.285 4.98633 257.915 6.08337 260.109 8.27328ZM252.168 5.62627C249.239 5.62627 246.737 6.66096 244.668 8.73453C242.594 10.8081 241.56 13.3014 241.56 16.2102C241.56 19.119 242.594 21.6413 244.668 23.7149C246.741 25.7884 249.239 26.8231 252.168 26.8231C255.098 26.8231 257.575 25.7884 259.648 23.7149C261.722 21.6413 262.757 19.1398 262.757 16.2102C262.757 13.2806 261.722 10.8039 259.648 8.73453C257.575 6.66096 255.081 5.62627 252.168 5.62627Z" fill="white"/>
<path d="M277.533 5.62646H286.526C288.034 5.62646 289.318 6.15836 290.382 7.21799C291.442 8.28178 291.973 9.56581 291.973 11.0742C291.973 12.5827 291.442 13.8916 290.382 14.9554C289.867 15.4707 289.31 15.853 288.711 16.1106C289.567 16.3516 290.34 16.8129 291.022 17.4985C292.082 18.5623 292.613 19.8464 292.613 21.3506C292.613 22.8549 292.082 24.168 291.022 25.2318C289.962 26.2956 288.674 26.8233 287.17 26.8233H277.533V5.62646ZM278.177 6.27055V15.907H286.53C287.851 15.907 288.982 15.4374 289.921 14.4942C290.864 13.5509 291.334 12.4123 291.334 11.0784C291.334 9.7445 290.864 8.62669 289.921 7.68756C288.977 6.74427 287.847 6.27471 286.53 6.27471H278.177V6.27055ZM278.177 16.547V26.1834H287.17C288.487 26.1834 289.621 25.7138 290.561 24.7706C291.504 23.8273 291.973 22.6887 291.973 21.3506C291.973 20.0126 291.504 18.9031 290.561 17.9598C289.617 17.0165 288.487 16.547 287.17 16.547H278.177Z" fill="white"/>
<path d="M314.741 5.62646L324.635 26.8233H323.916L322.296 23.3536H306.364L304.743 26.8233H304.024L313.918 5.62646H314.741ZM321.988 22.7136L314.33 6.29548L306.671 22.7136H321.984H321.988Z" fill="white"/>
<path d="M337.791 5.62646H338.435V26.1834H350V26.8275H337.796V5.63061L337.791 5.62646Z" fill="white"/>
<path d="M18.2616 0H17.4602C15.4851 0 13.8782 1.60686 13.8782 3.58194V20.3951C13.8782 23.5479 12.8183 25.1467 10.7268 25.1467C10.3504 25.1467 10.0445 25.4526 10.0445 25.8289C10.0445 26.2053 10.3504 26.5112 10.7268 26.5112C12.4135 26.5112 15.2428 25.7166 15.2428 20.3951V3.58194C15.2428 2.35953 16.2377 1.36455 17.4602 1.36455H18.2616C19.484 1.36455 20.479 2.35953 20.479 3.58194V20.2868C20.479 24.0353 19.4528 26.9634 17.4277 28.9885C15.6692 30.747 13.3286 31.6757 10.6564 31.6757C6.48827 31.6757 2.91039 29.1875 1.31706 25.1832C1.17763 24.834 0.780992 24.662 0.430379 24.8015C0.0797659 24.9409 -0.0908036 25.3375 0.0486294 25.6882C1.85314 30.2245 5.917 33.0416 10.6564 33.0416C13.6995 33.0416 16.3745 31.9748 18.3929 29.9551C20.6834 27.6646 21.8449 24.413 21.8449 20.2895V3.58194C21.8449 1.60686 20.238 0 18.2629 0H18.2616Z" fill="url(#paint0_linear_56_1369)"/>
<path d="M48.9936 15.8342C48.6227 15.8342 48.3222 16.1347 48.3222 16.5057V25.6419C48.3222 26.2565 48.0623 26.844 47.6074 27.2569C44.46 30.1186 40.4774 31.6944 36.3932 31.6944C27.965 31.6944 21.8489 25.3522 21.8489 16.6126V16.5408C21.8489 12.6137 23.231 8.90181 25.7395 6.09014C28.4442 3.05781 32.2414 1.38732 36.4298 1.38732C40.6182 1.38732 43.3351 2.46759 46.5285 5.11411C47.4531 5.88031 47.5844 7.25705 46.8209 8.18299L46.3201 8.79216C45.5579 9.71675 44.1825 9.85348 43.2552 9.09675C41.3221 7.52102 39.4161 6.47053 36.3946 6.47053C30.5167 6.47053 27.0052 11.5727 27.0052 16.5057V16.5774C27.0052 19.1481 27.812 21.5604 29.2754 23.3717C30.9892 25.4916 33.4638 26.6112 36.4298 26.6112C38.6891 26.6112 40.8592 25.9018 42.8789 24.5034C43.0603 24.3775 43.1686 24.1718 43.1686 23.9511V16.5408C43.1686 16.1699 42.8681 15.8694 42.4972 15.8694H36.1076C35.7367 15.8694 35.4362 16.1699 35.4362 16.5408C35.4362 16.9118 35.7367 17.2123 36.1076 17.2123H41.8257V23.5924C40.1187 24.7038 38.3047 25.2669 36.4298 25.2669C30.8768 25.2669 28.3481 20.7617 28.3481 16.576V16.5043C28.3481 12.232 31.3574 7.81342 36.3946 7.81342C39.0398 7.81342 40.6019 8.66491 42.4065 10.1364C43.9064 11.3588 46.1278 11.1395 47.3584 9.645L47.8592 9.03583C49.0911 7.53862 48.8799 5.31581 47.3868 4.07851C43.9253 1.21405 40.7509 0.0444336 36.4284 0.0444336C31.8515 0.0444336 27.6997 1.87331 24.7364 5.19533C22.0073 8.25474 20.5046 12.2834 20.5046 16.5408V16.6126C20.5046 26.1292 27.1866 33.0373 36.3932 33.0373C40.8118 33.0373 45.1152 31.337 48.5104 28.2505C49.2441 27.5831 49.6651 26.6315 49.6651 25.6405V16.5043C49.6651 16.1334 49.3646 15.8329 48.9936 15.8329V15.8342Z" fill="url(#paint1_linear_56_1369)"/>
<defs>
<linearGradient id="paint0_linear_56_1369" x1="2.54895" y1="29.6139" x2="25.952" y2="6.2095" gradientUnits="userSpaceOnUse">
<stop stop-color="#FAAC4B"/>
<stop offset="0.05" stop-color="#F9A449"/>
<stop offset="0.12" stop-color="#F69044"/>
<stop offset="0.21" stop-color="#F36E3D"/>
<stop offset="0.31" stop-color="#EE4033"/>
<stop offset="0.33" stop-color="#ED3431"/>
<stop offset="0.66" stop-color="#C5168C"/>
<stop offset="1" stop-color="#00BCF1"/>
</linearGradient>
<linearGradient id="paint1_linear_56_1369" x1="35.0855" y1="33.0386" x2="35.0855" y2="0.0444336" gradientUnits="userSpaceOnUse">
<stop stop-color="#FAAC4B"/>
<stop offset="0.03" stop-color="#F9A449"/>
<stop offset="0.08" stop-color="#F69044"/>
<stop offset="0.13" stop-color="#F36E3D"/>
<stop offset="0.2" stop-color="#EE4033"/>
<stop offset="0.21" stop-color="#ED3431"/>
<stop offset="0.28" stop-color="#DF2950"/>
<stop offset="0.34" stop-color="#D3216A"/>
<stop offset="0.41" stop-color="#CB1A7D"/>
<stop offset="0.48" stop-color="#C61788"/>
<stop offset="0.56" stop-color="#C5168C"/>
<stop offset="0.82" stop-color="#00BCF1"/>
</linearGradient>
</defs>
</svg>
